# xmcd
#
# Track frame offsets: 
#        150
#        12347
#        23950
#        34565
#        48777
#        60322
#        75070
#        87610
#        98432
#        113650
#        121712
#        136192
#        146590
#        157960
#        173810
#        186320
#        197827
#        209312
#        223952
#        238662
#
# Disc length: 3332 seconds
#
# Revision: 0
# Processed by: cddbd v1.5.2PL0 Copyright (c) Steve Scherf et al.
# Submitted via: ExactAudioCopy v1.3
#
DISCID=000d0214
DTITLE=Eddie Cash - Vol II - CD 1
DYEAR=2002
DGENRE=
TTITLE0=Always
TTITLE1=Behind Closed Doors
TTITLE2=All in the Game
TTITLE3=My Girl
TTITLE4=Just a Matter of Time
TTITLE5=Unforgettable
TTITLE6=Green Grass of Home
TTITLE7=Dream Lover
TTITLE8=He'll Have to Go
TTITLE9=Yodel Song
TTITLE10=Evergreen
TTITLE11=Most Beautiful Girl
TTITLE12=True Love Ways
TTITLE13=For the Good Times
TTITLE14=Suspicious Minds
TTITLE15=Mona Lisa
TTITLE16=Yesterday
TTITLE17=When I Go to Work, She Goes to Him
TTITLE18=Unchained Melody
TTITLE19=Rocky Top
EXTD=
EXTT0=
EXTT1=
EXTT2=
EXTT3=
EXTT4=
EXTT5=
EXTT6=
EXTT7=
EXTT8=
EXTT9=
EXTT10=
EXTT11=
EXTT12=
EXTT13=
EXTT14=
EXTT15=
EXTT16=
EXTT17=
EXTT18=
EXTT19=
PLAYORDER=
